<?xml version="1.0" encoding="UTF-8"?>
<!--
  Archivist Lockup (Horizontal)
  Symbol + Wordmark - Terminal Aesthetic
-->
<svg xmlns="http://www.w3.org/2000/svg" viewBox="0 0 520 80" width="520" height="80">
  <defs>
    <style>
      @import url('https://fonts.googleapis.com/css2?family=JetBrains+Mono:wght@700&amp;display=swap');
      .wordmark {
        font-family: 'JetBrains Mono', monospace;
        font-weight: 700;
        font-size: 36px;
        letter-spacing: 0.08em;
      }
    </style>
  </defs>

  <!-- Symbol -->
  <g transform="translate(0,0) scale(0.2)">
    <g transform="translate(0,400) scale(0.1,-0.1)" fill="#00ff41" stroke="none">
      <path d="M1750 3254 c-135 -79 -371 -217 -525 -305 -154 -89 -310 -180 -348
-201 l-67 -40 2 -691 3 -690 280 -165 c154 -90 294 -172 310 -182 55 -31 499
-292 548 -321 26 -16 49 -29 52 -29 2 0 60 33 127 73 68 41 245 145 393 232
149 87 359 210 467 274 l197 116 1 665 c0 366 3 675 6 687 7 25 25 12 -246
170 -91 52 -277 161 -415 241 -393 228 -538 312 -539 311 -1 0 -111 -66 -246
-145z m308 -306 c22 -40 113 -215 202 -388 89 -173 197 -380 240 -460 146
-274 300 -579 300 -594 0 -29 -17 -24 -106 28 -484 288 -687 406 -698 406 -7
0 -187 -102 -400 -226 -213 -124 -391 -223 -394 -219 -6 6 64 150 151 310 23
44 83 157 131 250 49 94 123 235 166 315 42 80 112 213 155 295 43 83 90 173
105 200 15 28 39 74 54 103 14 28 33 52 40 52 8 0 32 -33 54 -72z"/>
      <g transform="translate(1988,2200) scale(0.75) translate(-1988,-2200)">
        <path d="M1890 2712 c-62 -119 -168 -320 -235 -447 -67 -126 -153 -288 -190
-360 -38 -71 -88 -166 -112 -209 -24 -43 -42 -80 -40 -82 1 -2 79 42 172 98
395 234 485 287 503 292 13 5 118 -53 353 -195 184 -110 340 -205 347 -211 6
-6 12 -7 12 -4 0 7 -86 171 -120 231 -10 17 -57 107 -105 200 -49 94 -114 217
-144 275 -31 58 -114 220 -185 360 -71 140 -132 258 -135 262 -4 5 -58 -90
-121 -210z"/>
      </g>
    </g>
  </g>

  <!-- Wordmark -->
  <text x="100" y="52" class="wordmark" fill="#00ff41">ARCHIVIST</text>
</svg>
